<mxfile host="Electron" modified="2024-03-05T05:28:29.121Z" agent="Mozilla/5.0 (X11; Linux x86_64) AppleWebKit/537.36 (KHTML, like Gecko) draw.io/23.1.5 Chrome/120.0.6099.109 Electron/28.1.0 Safari/537.36" etag="5emerfNqMWLpV2inIH9E" version="23.1.5" type="device">
  <diagram name="Page-1" id="okQUsLcCIn6qNMJXYvbM">
    <mxGraphModel dx="4580" dy="2303" grid="1" gridSize="10" guides="1" tooltips="1" connect="1" arrows="1" fold="1" page="1" pageScale="1" pageWidth="850" pageHeight="1100" math="0" shadow="0">
      <root>
        <mxCell id="0" />
        <mxCell id="1" parent="0" />
        <mxCell id="XB3jAJVvI8-QcdFU9VrM-32" value="&lt;span style=&quot;font-size: 48px;&quot;&gt;Dispatcher Node&lt;/span&gt;" style="rounded=1;whiteSpace=wrap;html=1;verticalAlign=top;" parent="1" vertex="1">
          <mxGeometry x="-1345" y="60" width="420" height="240" as="geometry" />
        </mxCell>
        <mxCell id="XB3jAJVvI8-QcdFU9VrM-1" value="&lt;font style=&quot;font-size: 48px;&quot;&gt;Controller Node&lt;/font&gt;" style="rounded=1;whiteSpace=wrap;html=1;verticalAlign=top;" parent="1" vertex="1">
          <mxGeometry x="-1345" y="420" width="420" height="180" as="geometry" />
        </mxCell>
        <mxCell id="XB3jAJVvI8-QcdFU9VrM-2" value="&lt;span style=&quot;font-size: 24px;&quot;&gt;Leg&lt;/span&gt;" style="rounded=1;whiteSpace=wrap;html=1;verticalAlign=middle;" parent="1" vertex="1">
          <mxGeometry x="-1195" y="480" width="120" height="60" as="geometry" />
        </mxCell>
        <mxCell id="XB3jAJVvI8-QcdFU9VrM-3" value="&lt;font style=&quot;font-size: 48px;&quot;&gt;Host&lt;/font&gt;" style="rounded=1;whiteSpace=wrap;html=1;verticalAlign=top;" parent="1" vertex="1">
          <mxGeometry x="-445" y="-150" width="240" height="150" as="geometry" />
        </mxCell>
        <mxCell id="XB3jAJVvI8-QcdFU9VrM-4" value="&lt;font style=&quot;font-size: 24px;&quot;&gt;nvmeof&lt;br&gt;multipath&lt;br&gt;&lt;/font&gt;" style="rounded=0;whiteSpace=wrap;html=1;" parent="1" vertex="1">
          <mxGeometry x="-385" y="-90" width="120" height="60" as="geometry" />
        </mxCell>
        <mxCell id="XB3jAJVvI8-QcdFU9VrM-5" value="&lt;font style=&quot;font-size: 48px;&quot;&gt;Disk Node&lt;/font&gt;" style="rounded=1;whiteSpace=wrap;html=1;verticalAlign=top;" parent="1" vertex="1">
          <mxGeometry x="-1390" y="630" width="240" height="210" as="geometry" />
        </mxCell>
        <mxCell id="XB3jAJVvI8-QcdFU9VrM-6" value="&lt;font style=&quot;font-size: 24px;&quot;&gt;Physical&lt;br&gt;Disk&lt;/font&gt;" style="shape=cylinder3;whiteSpace=wrap;html=1;boundedLbl=1;backgroundOutline=1;size=15;" parent="1" vertex="1">
          <mxGeometry x="-1330" y="870" width="120" height="80" as="geometry" />
        </mxCell>
        <mxCell id="XB3jAJVvI8-QcdFU9VrM-7" value="&lt;font style=&quot;font-size: 24px;&quot;&gt;/dev/nvme0n1&lt;/font&gt;" style="rounded=0;whiteSpace=wrap;html=1;" parent="1" vertex="1">
          <mxGeometry x="-1360" y="780" width="180" height="60" as="geometry" />
        </mxCell>
        <mxCell id="XB3jAJVvI8-QcdFU9VrM-9" value="" style="endArrow=classic;html=1;rounded=0;strokeWidth=5;strokeColor=#000000;exitX=0.5;exitY=0;exitDx=0;exitDy=0;exitPerimeter=0;entryX=0.5;entryY=1;entryDx=0;entryDy=0;" parent="1" source="XB3jAJVvI8-QcdFU9VrM-6" target="XB3jAJVvI8-QcdFU9VrM-7" edge="1">
          <mxGeometry width="50" height="50" relative="1" as="geometry">
            <mxPoint x="-965" y="1190" as="sourcePoint" />
            <mxPoint x="-915" y="1140" as="targetPoint" />
          </mxGeometry>
        </mxCell>
        <mxCell id="XB3jAJVvI8-QcdFU9VrM-10" value="" style="endArrow=classic;html=1;rounded=0;strokeWidth=5;strokeColor=#808080;exitX=0.5;exitY=0;exitDx=0;exitDy=0;entryX=0.5;entryY=1;entryDx=0;entryDy=0;" parent="1" source="XB3jAJVvI8-QcdFU9VrM-7" target="XB3jAJVvI8-QcdFU9VrM-11" edge="1">
          <mxGeometry width="50" height="50" relative="1" as="geometry">
            <mxPoint x="-585" y="790" as="sourcePoint" />
            <mxPoint x="-585" y="700" as="targetPoint" />
          </mxGeometry>
        </mxCell>
        <mxCell id="XB3jAJVvI8-QcdFU9VrM-11" value="&lt;font style=&quot;font-size: 24px;&quot;&gt;Logical Disk&lt;/font&gt;" style="rounded=1;whiteSpace=wrap;html=1;verticalAlign=bottom;container=0;" parent="1" vertex="1">
          <mxGeometry x="-1330" y="690" width="120" height="60" as="geometry" />
        </mxCell>
        <mxCell id="XB3jAJVvI8-QcdFU9VrM-13" value="" style="endArrow=none;dashed=1;html=1;dashPattern=1 4;strokeWidth=5;rounded=0;exitX=1;exitY=0.5;exitDx=0;exitDy=0;entryX=1;entryY=0.5;entryDx=0;entryDy=0;" parent="1" edge="1">
          <mxGeometry width="50" height="50" relative="1" as="geometry">
            <mxPoint x="-1255" y="720" as="sourcePoint" />
            <mxPoint x="-1255" y="720" as="targetPoint" />
          </mxGeometry>
        </mxCell>
        <mxCell id="XB3jAJVvI8-QcdFU9VrM-15" value="&lt;font style=&quot;font-size: 48px;&quot;&gt;Disk Node&lt;/font&gt;" style="rounded=1;whiteSpace=wrap;html=1;verticalAlign=top;" parent="1" vertex="1">
          <mxGeometry x="-1120" y="630" width="240" height="210" as="geometry" />
        </mxCell>
        <mxCell id="XB3jAJVvI8-QcdFU9VrM-16" value="&lt;font style=&quot;font-size: 24px;&quot;&gt;Physical&lt;br&gt;Disk&lt;/font&gt;" style="shape=cylinder3;whiteSpace=wrap;html=1;boundedLbl=1;backgroundOutline=1;size=15;" parent="1" vertex="1">
          <mxGeometry x="-1055" y="870" width="120" height="80" as="geometry" />
        </mxCell>
        <mxCell id="XB3jAJVvI8-QcdFU9VrM-17" value="&lt;font style=&quot;font-size: 24px;&quot;&gt;/dev/nvme0n1&lt;/font&gt;" style="rounded=0;whiteSpace=wrap;html=1;" parent="1" vertex="1">
          <mxGeometry x="-1085" y="780" width="180" height="60" as="geometry" />
        </mxCell>
        <mxCell id="XB3jAJVvI8-QcdFU9VrM-19" value="" style="endArrow=classic;html=1;rounded=0;strokeWidth=5;strokeColor=#000000;exitX=0.5;exitY=0;exitDx=0;exitDy=0;exitPerimeter=0;entryX=0.5;entryY=1;entryDx=0;entryDy=0;" parent="1" source="XB3jAJVvI8-QcdFU9VrM-16" target="XB3jAJVvI8-QcdFU9VrM-17" edge="1">
          <mxGeometry width="50" height="50" relative="1" as="geometry">
            <mxPoint x="-675" y="1190" as="sourcePoint" />
            <mxPoint x="-625" y="1140" as="targetPoint" />
          </mxGeometry>
        </mxCell>
        <mxCell id="XB3jAJVvI8-QcdFU9VrM-20" value="" style="endArrow=classic;html=1;rounded=0;strokeWidth=5;strokeColor=#808080;exitX=0.5;exitY=0;exitDx=0;exitDy=0;entryX=0.5;entryY=1;entryDx=0;entryDy=0;" parent="1" source="XB3jAJVvI8-QcdFU9VrM-17" target="XB3jAJVvI8-QcdFU9VrM-21" edge="1">
          <mxGeometry width="50" height="50" relative="1" as="geometry">
            <mxPoint x="-295" y="790" as="sourcePoint" />
            <mxPoint x="-295" y="700" as="targetPoint" />
          </mxGeometry>
        </mxCell>
        <mxCell id="XB3jAJVvI8-QcdFU9VrM-21" value="&lt;font style=&quot;font-size: 24px;&quot;&gt;Logical Disk&lt;/font&gt;" style="rounded=1;whiteSpace=wrap;html=1;verticalAlign=bottom;container=0;" parent="1" vertex="1">
          <mxGeometry x="-1060" y="690" width="120" height="60" as="geometry" />
        </mxCell>
        <mxCell id="XB3jAJVvI8-QcdFU9VrM-23" value="" style="endArrow=none;dashed=1;html=1;dashPattern=1 4;strokeWidth=5;rounded=0;exitX=1;exitY=0.5;exitDx=0;exitDy=0;entryX=1;entryY=0.5;entryDx=0;entryDy=0;" parent="1" edge="1">
          <mxGeometry width="50" height="50" relative="1" as="geometry">
            <mxPoint x="-965" y="720" as="sourcePoint" />
            <mxPoint x="-965" y="720" as="targetPoint" />
          </mxGeometry>
        </mxCell>
        <mxCell id="XB3jAJVvI8-QcdFU9VrM-25" value="" style="endArrow=classic;html=1;rounded=0;strokeWidth=5;strokeColor=#0000f0;exitX=0.5;exitY=0;exitDx=0;exitDy=0;entryX=0.5;entryY=1;entryDx=0;entryDy=0;" parent="1" source="XB3jAJVvI8-QcdFU9VrM-11" target="XB3jAJVvI8-QcdFU9VrM-2" edge="1">
          <mxGeometry width="50" height="50" relative="1" as="geometry">
            <mxPoint x="150" y="560" as="sourcePoint" />
            <mxPoint x="30" y="300" as="targetPoint" />
          </mxGeometry>
        </mxCell>
        <mxCell id="XB3jAJVvI8-QcdFU9VrM-26" value="" style="endArrow=classic;html=1;rounded=0;strokeWidth=5;strokeColor=#0000f0;exitX=0.5;exitY=0;exitDx=0;exitDy=0;entryX=0.5;entryY=1;entryDx=0;entryDy=0;" parent="1" source="XB3jAJVvI8-QcdFU9VrM-21" target="XB3jAJVvI8-QcdFU9VrM-2" edge="1">
          <mxGeometry width="50" height="50" relative="1" as="geometry">
            <mxPoint x="-40" y="800" as="sourcePoint" />
            <mxPoint x="80" y="540" as="targetPoint" />
          </mxGeometry>
        </mxCell>
        <mxCell id="XB3jAJVvI8-QcdFU9VrM-33" value="&lt;span style=&quot;font-size: 24px;&quot;&gt;raid0&lt;/span&gt;" style="rounded=0;whiteSpace=wrap;html=1;verticalAlign=middle;" parent="1" vertex="1">
          <mxGeometry x="-1195" y="210" width="120" height="60" as="geometry" />
        </mxCell>
        <mxCell id="XB3jAJVvI8-QcdFU9VrM-34" value="&lt;font style=&quot;font-size: 48px;&quot;&gt;Controller Node&lt;/font&gt;" style="rounded=1;whiteSpace=wrap;html=1;verticalAlign=top;" parent="1" vertex="1">
          <mxGeometry x="-805" y="420" width="420" height="180" as="geometry" />
        </mxCell>
        <mxCell id="XB3jAJVvI8-QcdFU9VrM-35" value="&lt;span style=&quot;font-size: 24px;&quot;&gt;Leg&lt;/span&gt;" style="rounded=1;whiteSpace=wrap;html=1;verticalAlign=middle;" parent="1" vertex="1">
          <mxGeometry x="-655" y="480" width="120" height="60" as="geometry" />
        </mxCell>
        <mxCell id="XB3jAJVvI8-QcdFU9VrM-36" value="&lt;font style=&quot;font-size: 48px;&quot;&gt;Disk Node&lt;/font&gt;" style="rounded=1;whiteSpace=wrap;html=1;verticalAlign=top;" parent="1" vertex="1">
          <mxGeometry x="-850" y="630" width="240" height="210" as="geometry" />
        </mxCell>
        <mxCell id="XB3jAJVvI8-QcdFU9VrM-37" value="&lt;font style=&quot;font-size: 24px;&quot;&gt;Physical&lt;br&gt;Disk&lt;/font&gt;" style="shape=cylinder3;whiteSpace=wrap;html=1;boundedLbl=1;backgroundOutline=1;size=15;" parent="1" vertex="1">
          <mxGeometry x="-790" y="870" width="120" height="80" as="geometry" />
        </mxCell>
        <mxCell id="XB3jAJVvI8-QcdFU9VrM-38" value="&lt;font style=&quot;font-size: 24px;&quot;&gt;/dev/nvme0n1&lt;/font&gt;" style="rounded=0;whiteSpace=wrap;html=1;" parent="1" vertex="1">
          <mxGeometry x="-820" y="780" width="180" height="60" as="geometry" />
        </mxCell>
        <mxCell id="XB3jAJVvI8-QcdFU9VrM-39" value="" style="endArrow=classic;html=1;rounded=0;strokeWidth=5;strokeColor=#000000;exitX=0.5;exitY=0;exitDx=0;exitDy=0;exitPerimeter=0;entryX=0.5;entryY=1;entryDx=0;entryDy=0;" parent="1" source="XB3jAJVvI8-QcdFU9VrM-37" target="XB3jAJVvI8-QcdFU9VrM-38" edge="1">
          <mxGeometry width="50" height="50" relative="1" as="geometry">
            <mxPoint x="-425" y="1190" as="sourcePoint" />
            <mxPoint x="-375" y="1140" as="targetPoint" />
          </mxGeometry>
        </mxCell>
        <mxCell id="XB3jAJVvI8-QcdFU9VrM-40" value="" style="endArrow=classic;html=1;rounded=0;strokeWidth=5;strokeColor=#808080;exitX=0.5;exitY=0;exitDx=0;exitDy=0;entryX=0.5;entryY=1;entryDx=0;entryDy=0;" parent="1" source="XB3jAJVvI8-QcdFU9VrM-38" target="XB3jAJVvI8-QcdFU9VrM-41" edge="1">
          <mxGeometry width="50" height="50" relative="1" as="geometry">
            <mxPoint x="-45" y="790" as="sourcePoint" />
            <mxPoint x="-45" y="700" as="targetPoint" />
          </mxGeometry>
        </mxCell>
        <mxCell id="XB3jAJVvI8-QcdFU9VrM-41" value="&lt;font style=&quot;font-size: 24px;&quot;&gt;Logical Disk&lt;/font&gt;" style="rounded=1;whiteSpace=wrap;html=1;verticalAlign=bottom;container=0;" parent="1" vertex="1">
          <mxGeometry x="-790" y="690" width="120" height="60" as="geometry" />
        </mxCell>
        <mxCell id="XB3jAJVvI8-QcdFU9VrM-42" value="" style="endArrow=none;dashed=1;html=1;dashPattern=1 4;strokeWidth=5;rounded=0;exitX=1;exitY=0.5;exitDx=0;exitDy=0;entryX=1;entryY=0.5;entryDx=0;entryDy=0;" parent="1" edge="1">
          <mxGeometry width="50" height="50" relative="1" as="geometry">
            <mxPoint x="-715" y="720" as="sourcePoint" />
            <mxPoint x="-715" y="720" as="targetPoint" />
          </mxGeometry>
        </mxCell>
        <mxCell id="XB3jAJVvI8-QcdFU9VrM-43" value="&lt;font style=&quot;font-size: 48px;&quot;&gt;Disk Node&lt;/font&gt;" style="rounded=1;whiteSpace=wrap;html=1;verticalAlign=top;" parent="1" vertex="1">
          <mxGeometry x="-580" y="630" width="240" height="210" as="geometry" />
        </mxCell>
        <mxCell id="XB3jAJVvI8-QcdFU9VrM-44" value="&lt;font style=&quot;font-size: 24px;&quot;&gt;Physical&lt;br&gt;Disk&lt;/font&gt;" style="shape=cylinder3;whiteSpace=wrap;html=1;boundedLbl=1;backgroundOutline=1;size=15;" parent="1" vertex="1">
          <mxGeometry x="-515" y="870" width="120" height="80" as="geometry" />
        </mxCell>
        <mxCell id="XB3jAJVvI8-QcdFU9VrM-45" value="&lt;font style=&quot;font-size: 24px;&quot;&gt;/dev/nvme0n1&lt;/font&gt;" style="rounded=0;whiteSpace=wrap;html=1;" parent="1" vertex="1">
          <mxGeometry x="-545" y="780" width="180" height="60" as="geometry" />
        </mxCell>
        <mxCell id="XB3jAJVvI8-QcdFU9VrM-46" value="" style="endArrow=classic;html=1;rounded=0;strokeWidth=5;strokeColor=#000000;exitX=0.5;exitY=0;exitDx=0;exitDy=0;exitPerimeter=0;entryX=0.5;entryY=1;entryDx=0;entryDy=0;" parent="1" source="XB3jAJVvI8-QcdFU9VrM-44" target="XB3jAJVvI8-QcdFU9VrM-45" edge="1">
          <mxGeometry width="50" height="50" relative="1" as="geometry">
            <mxPoint x="-135" y="1190" as="sourcePoint" />
            <mxPoint x="-85" y="1140" as="targetPoint" />
          </mxGeometry>
        </mxCell>
        <mxCell id="XB3jAJVvI8-QcdFU9VrM-47" value="" style="endArrow=classic;html=1;rounded=0;strokeWidth=5;strokeColor=#808080;exitX=0.5;exitY=0;exitDx=0;exitDy=0;entryX=0.5;entryY=1;entryDx=0;entryDy=0;" parent="1" source="XB3jAJVvI8-QcdFU9VrM-45" target="XB3jAJVvI8-QcdFU9VrM-48" edge="1">
          <mxGeometry width="50" height="50" relative="1" as="geometry">
            <mxPoint x="245" y="790" as="sourcePoint" />
            <mxPoint x="245" y="700" as="targetPoint" />
          </mxGeometry>
        </mxCell>
        <mxCell id="XB3jAJVvI8-QcdFU9VrM-48" value="&lt;font style=&quot;font-size: 24px;&quot;&gt;Logical Disk&lt;/font&gt;" style="rounded=1;whiteSpace=wrap;html=1;verticalAlign=bottom;container=0;" parent="1" vertex="1">
          <mxGeometry x="-520" y="690" width="120" height="60" as="geometry" />
        </mxCell>
        <mxCell id="XB3jAJVvI8-QcdFU9VrM-49" value="" style="endArrow=none;dashed=1;html=1;dashPattern=1 4;strokeWidth=5;rounded=0;exitX=1;exitY=0.5;exitDx=0;exitDy=0;entryX=1;entryY=0.5;entryDx=0;entryDy=0;" parent="1" edge="1">
          <mxGeometry width="50" height="50" relative="1" as="geometry">
            <mxPoint x="-425" y="720" as="sourcePoint" />
            <mxPoint x="-425" y="720" as="targetPoint" />
          </mxGeometry>
        </mxCell>
        <mxCell id="XB3jAJVvI8-QcdFU9VrM-50" value="" style="endArrow=classic;html=1;rounded=0;strokeWidth=5;strokeColor=#0000f0;exitX=0.5;exitY=0;exitDx=0;exitDy=0;entryX=0.5;entryY=1;entryDx=0;entryDy=0;" parent="1" source="XB3jAJVvI8-QcdFU9VrM-41" target="XB3jAJVvI8-QcdFU9VrM-35" edge="1">
          <mxGeometry width="50" height="50" relative="1" as="geometry">
            <mxPoint x="690" y="560" as="sourcePoint" />
            <mxPoint x="570" y="300" as="targetPoint" />
          </mxGeometry>
        </mxCell>
        <mxCell id="XB3jAJVvI8-QcdFU9VrM-51" value="" style="endArrow=classic;html=1;rounded=0;strokeWidth=5;strokeColor=#0000f0;exitX=0.5;exitY=0;exitDx=0;exitDy=0;entryX=0.5;entryY=1;entryDx=0;entryDy=0;" parent="1" source="XB3jAJVvI8-QcdFU9VrM-48" target="XB3jAJVvI8-QcdFU9VrM-35" edge="1">
          <mxGeometry width="50" height="50" relative="1" as="geometry">
            <mxPoint x="500" y="800" as="sourcePoint" />
            <mxPoint x="620" y="540" as="targetPoint" />
          </mxGeometry>
        </mxCell>
        <mxCell id="XB3jAJVvI8-QcdFU9VrM-52" value="&lt;font style=&quot;font-size: 48px;&quot;&gt;Controller Node&lt;/font&gt;" style="rounded=1;whiteSpace=wrap;html=1;verticalAlign=top;" parent="1" vertex="1">
          <mxGeometry x="-265" y="420" width="420" height="180" as="geometry" />
        </mxCell>
        <mxCell id="XB3jAJVvI8-QcdFU9VrM-53" value="&lt;span style=&quot;font-size: 24px;&quot;&gt;Leg&lt;/span&gt;" style="rounded=1;whiteSpace=wrap;html=1;verticalAlign=middle;" parent="1" vertex="1">
          <mxGeometry x="-115" y="480" width="120" height="60" as="geometry" />
        </mxCell>
        <mxCell id="XB3jAJVvI8-QcdFU9VrM-54" value="&lt;font style=&quot;font-size: 48px;&quot;&gt;Disk Node&lt;/font&gt;" style="rounded=1;whiteSpace=wrap;html=1;verticalAlign=top;" parent="1" vertex="1">
          <mxGeometry x="-310" y="630" width="240" height="210" as="geometry" />
        </mxCell>
        <mxCell id="XB3jAJVvI8-QcdFU9VrM-55" value="&lt;font style=&quot;font-size: 24px;&quot;&gt;Physical&lt;br&gt;Disk&lt;/font&gt;" style="shape=cylinder3;whiteSpace=wrap;html=1;boundedLbl=1;backgroundOutline=1;size=15;" parent="1" vertex="1">
          <mxGeometry x="-250" y="870" width="120" height="80" as="geometry" />
        </mxCell>
        <mxCell id="XB3jAJVvI8-QcdFU9VrM-56" value="&lt;font style=&quot;font-size: 24px;&quot;&gt;/dev/nvme0n1&lt;/font&gt;" style="rounded=0;whiteSpace=wrap;html=1;" parent="1" vertex="1">
          <mxGeometry x="-280" y="780" width="180" height="60" as="geometry" />
        </mxCell>
        <mxCell id="XB3jAJVvI8-QcdFU9VrM-57" value="" style="endArrow=classic;html=1;rounded=0;strokeWidth=5;strokeColor=#000000;exitX=0.5;exitY=0;exitDx=0;exitDy=0;exitPerimeter=0;entryX=0.5;entryY=1;entryDx=0;entryDy=0;" parent="1" source="XB3jAJVvI8-QcdFU9VrM-55" target="XB3jAJVvI8-QcdFU9VrM-56" edge="1">
          <mxGeometry width="50" height="50" relative="1" as="geometry">
            <mxPoint x="115" y="1190" as="sourcePoint" />
            <mxPoint x="165" y="1140" as="targetPoint" />
          </mxGeometry>
        </mxCell>
        <mxCell id="XB3jAJVvI8-QcdFU9VrM-58" value="" style="endArrow=classic;html=1;rounded=0;strokeWidth=5;strokeColor=#808080;exitX=0.5;exitY=0;exitDx=0;exitDy=0;entryX=0.5;entryY=1;entryDx=0;entryDy=0;" parent="1" source="XB3jAJVvI8-QcdFU9VrM-56" target="XB3jAJVvI8-QcdFU9VrM-59" edge="1">
          <mxGeometry width="50" height="50" relative="1" as="geometry">
            <mxPoint x="495" y="790" as="sourcePoint" />
            <mxPoint x="495" y="700" as="targetPoint" />
          </mxGeometry>
        </mxCell>
        <mxCell id="XB3jAJVvI8-QcdFU9VrM-59" value="&lt;font style=&quot;font-size: 24px;&quot;&gt;Logical Disk&lt;/font&gt;" style="rounded=1;whiteSpace=wrap;html=1;verticalAlign=bottom;container=0;" parent="1" vertex="1">
          <mxGeometry x="-250" y="690" width="120" height="60" as="geometry" />
        </mxCell>
        <mxCell id="XB3jAJVvI8-QcdFU9VrM-60" value="" style="endArrow=none;dashed=1;html=1;dashPattern=1 4;strokeWidth=5;rounded=0;exitX=1;exitY=0.5;exitDx=0;exitDy=0;entryX=1;entryY=0.5;entryDx=0;entryDy=0;" parent="1" edge="1">
          <mxGeometry width="50" height="50" relative="1" as="geometry">
            <mxPoint x="-175" y="720" as="sourcePoint" />
            <mxPoint x="-175" y="720" as="targetPoint" />
          </mxGeometry>
        </mxCell>
        <mxCell id="XB3jAJVvI8-QcdFU9VrM-61" value="&lt;font style=&quot;font-size: 48px;&quot;&gt;Disk Node&lt;/font&gt;" style="rounded=1;whiteSpace=wrap;html=1;verticalAlign=top;" parent="1" vertex="1">
          <mxGeometry x="-40" y="630" width="240" height="210" as="geometry" />
        </mxCell>
        <mxCell id="XB3jAJVvI8-QcdFU9VrM-62" value="&lt;font style=&quot;font-size: 24px;&quot;&gt;Physical&lt;br&gt;Disk&lt;/font&gt;" style="shape=cylinder3;whiteSpace=wrap;html=1;boundedLbl=1;backgroundOutline=1;size=15;" parent="1" vertex="1">
          <mxGeometry x="25" y="870" width="120" height="80" as="geometry" />
        </mxCell>
        <mxCell id="XB3jAJVvI8-QcdFU9VrM-63" value="&lt;font style=&quot;font-size: 24px;&quot;&gt;/dev/nvme0n1&lt;/font&gt;" style="rounded=0;whiteSpace=wrap;html=1;" parent="1" vertex="1">
          <mxGeometry x="-5" y="780" width="180" height="60" as="geometry" />
        </mxCell>
        <mxCell id="XB3jAJVvI8-QcdFU9VrM-64" value="" style="endArrow=classic;html=1;rounded=0;strokeWidth=5;strokeColor=#000000;exitX=0.5;exitY=0;exitDx=0;exitDy=0;exitPerimeter=0;entryX=0.5;entryY=1;entryDx=0;entryDy=0;" parent="1" source="XB3jAJVvI8-QcdFU9VrM-62" target="XB3jAJVvI8-QcdFU9VrM-63" edge="1">
          <mxGeometry width="50" height="50" relative="1" as="geometry">
            <mxPoint x="405" y="1190" as="sourcePoint" />
            <mxPoint x="455" y="1140" as="targetPoint" />
          </mxGeometry>
        </mxCell>
        <mxCell id="XB3jAJVvI8-QcdFU9VrM-65" value="" style="endArrow=classic;html=1;rounded=0;strokeWidth=5;strokeColor=#808080;exitX=0.5;exitY=0;exitDx=0;exitDy=0;entryX=0.5;entryY=1;entryDx=0;entryDy=0;" parent="1" source="XB3jAJVvI8-QcdFU9VrM-63" target="XB3jAJVvI8-QcdFU9VrM-66" edge="1">
          <mxGeometry width="50" height="50" relative="1" as="geometry">
            <mxPoint x="785" y="790" as="sourcePoint" />
            <mxPoint x="785" y="700" as="targetPoint" />
          </mxGeometry>
        </mxCell>
        <mxCell id="XB3jAJVvI8-QcdFU9VrM-66" value="&lt;font style=&quot;font-size: 24px;&quot;&gt;Logical Disk&lt;/font&gt;" style="rounded=1;whiteSpace=wrap;html=1;verticalAlign=bottom;container=0;" parent="1" vertex="1">
          <mxGeometry x="20" y="690" width="120" height="60" as="geometry" />
        </mxCell>
        <mxCell id="XB3jAJVvI8-QcdFU9VrM-67" value="" style="endArrow=none;dashed=1;html=1;dashPattern=1 4;strokeWidth=5;rounded=0;exitX=1;exitY=0.5;exitDx=0;exitDy=0;entryX=1;entryY=0.5;entryDx=0;entryDy=0;" parent="1" edge="1">
          <mxGeometry width="50" height="50" relative="1" as="geometry">
            <mxPoint x="115" y="720" as="sourcePoint" />
            <mxPoint x="115" y="720" as="targetPoint" />
          </mxGeometry>
        </mxCell>
        <mxCell id="XB3jAJVvI8-QcdFU9VrM-68" value="" style="endArrow=classic;html=1;rounded=0;strokeWidth=5;strokeColor=#0000f0;exitX=0.5;exitY=0;exitDx=0;exitDy=0;entryX=0.5;entryY=1;entryDx=0;entryDy=0;" parent="1" source="XB3jAJVvI8-QcdFU9VrM-59" target="XB3jAJVvI8-QcdFU9VrM-53" edge="1">
          <mxGeometry width="50" height="50" relative="1" as="geometry">
            <mxPoint x="1230" y="560" as="sourcePoint" />
            <mxPoint x="1110" y="300" as="targetPoint" />
          </mxGeometry>
        </mxCell>
        <mxCell id="XB3jAJVvI8-QcdFU9VrM-69" value="" style="endArrow=classic;html=1;rounded=0;strokeWidth=5;strokeColor=#0000f0;exitX=0.5;exitY=0;exitDx=0;exitDy=0;entryX=0.5;entryY=1;entryDx=0;entryDy=0;" parent="1" source="XB3jAJVvI8-QcdFU9VrM-66" target="XB3jAJVvI8-QcdFU9VrM-53" edge="1">
          <mxGeometry width="50" height="50" relative="1" as="geometry">
            <mxPoint x="1040" y="800" as="sourcePoint" />
            <mxPoint x="1160" y="540" as="targetPoint" />
          </mxGeometry>
        </mxCell>
        <mxCell id="XB3jAJVvI8-QcdFU9VrM-70" value="&lt;font style=&quot;font-size: 48px;&quot;&gt;Controller Node&lt;/font&gt;" style="rounded=1;whiteSpace=wrap;html=1;verticalAlign=top;" parent="1" vertex="1">
          <mxGeometry x="275" y="420" width="420" height="180" as="geometry" />
        </mxCell>
        <mxCell id="XB3jAJVvI8-QcdFU9VrM-71" value="&lt;span style=&quot;font-size: 24px;&quot;&gt;Leg&lt;/span&gt;" style="rounded=1;whiteSpace=wrap;html=1;verticalAlign=middle;" parent="1" vertex="1">
          <mxGeometry x="425" y="480" width="120" height="60" as="geometry" />
        </mxCell>
        <mxCell id="XB3jAJVvI8-QcdFU9VrM-72" value="&lt;font style=&quot;font-size: 48px;&quot;&gt;Disk Node&lt;/font&gt;" style="rounded=1;whiteSpace=wrap;html=1;verticalAlign=top;" parent="1" vertex="1">
          <mxGeometry x="230" y="630" width="240" height="210" as="geometry" />
        </mxCell>
        <mxCell id="XB3jAJVvI8-QcdFU9VrM-73" value="&lt;font style=&quot;font-size: 24px;&quot;&gt;Physical&lt;br&gt;Disk&lt;/font&gt;" style="shape=cylinder3;whiteSpace=wrap;html=1;boundedLbl=1;backgroundOutline=1;size=15;" parent="1" vertex="1">
          <mxGeometry x="290" y="870" width="120" height="80" as="geometry" />
        </mxCell>
        <mxCell id="XB3jAJVvI8-QcdFU9VrM-74" value="&lt;font style=&quot;font-size: 24px;&quot;&gt;/dev/nvme0n1&lt;/font&gt;" style="rounded=0;whiteSpace=wrap;html=1;" parent="1" vertex="1">
          <mxGeometry x="260" y="780" width="180" height="60" as="geometry" />
        </mxCell>
        <mxCell id="XB3jAJVvI8-QcdFU9VrM-75" value="" style="endArrow=classic;html=1;rounded=0;strokeWidth=5;strokeColor=#000000;exitX=0.5;exitY=0;exitDx=0;exitDy=0;exitPerimeter=0;entryX=0.5;entryY=1;entryDx=0;entryDy=0;" parent="1" source="XB3jAJVvI8-QcdFU9VrM-73" target="XB3jAJVvI8-QcdFU9VrM-74" edge="1">
          <mxGeometry width="50" height="50" relative="1" as="geometry">
            <mxPoint x="655" y="1190" as="sourcePoint" />
            <mxPoint x="705" y="1140" as="targetPoint" />
          </mxGeometry>
        </mxCell>
        <mxCell id="XB3jAJVvI8-QcdFU9VrM-76" value="" style="endArrow=classic;html=1;rounded=0;strokeWidth=5;strokeColor=#808080;exitX=0.5;exitY=0;exitDx=0;exitDy=0;entryX=0.5;entryY=1;entryDx=0;entryDy=0;" parent="1" source="XB3jAJVvI8-QcdFU9VrM-74" target="XB3jAJVvI8-QcdFU9VrM-77" edge="1">
          <mxGeometry width="50" height="50" relative="1" as="geometry">
            <mxPoint x="1035" y="790" as="sourcePoint" />
            <mxPoint x="1035" y="700" as="targetPoint" />
          </mxGeometry>
        </mxCell>
        <mxCell id="XB3jAJVvI8-QcdFU9VrM-77" value="&lt;font style=&quot;font-size: 24px;&quot;&gt;Logical Disk&lt;/font&gt;" style="rounded=1;whiteSpace=wrap;html=1;verticalAlign=bottom;container=0;" parent="1" vertex="1">
          <mxGeometry x="290" y="690" width="120" height="60" as="geometry" />
        </mxCell>
        <mxCell id="XB3jAJVvI8-QcdFU9VrM-78" value="" style="endArrow=none;dashed=1;html=1;dashPattern=1 4;strokeWidth=5;rounded=0;exitX=1;exitY=0.5;exitDx=0;exitDy=0;entryX=1;entryY=0.5;entryDx=0;entryDy=0;" parent="1" edge="1">
          <mxGeometry width="50" height="50" relative="1" as="geometry">
            <mxPoint x="365" y="720" as="sourcePoint" />
            <mxPoint x="365" y="720" as="targetPoint" />
          </mxGeometry>
        </mxCell>
        <mxCell id="XB3jAJVvI8-QcdFU9VrM-79" value="&lt;font style=&quot;font-size: 48px;&quot;&gt;Disk Node&lt;/font&gt;" style="rounded=1;whiteSpace=wrap;html=1;verticalAlign=top;" parent="1" vertex="1">
          <mxGeometry x="500" y="630" width="240" height="210" as="geometry" />
        </mxCell>
        <mxCell id="XB3jAJVvI8-QcdFU9VrM-80" value="&lt;font style=&quot;font-size: 24px;&quot;&gt;Physical&lt;br&gt;Disk&lt;/font&gt;" style="shape=cylinder3;whiteSpace=wrap;html=1;boundedLbl=1;backgroundOutline=1;size=15;" parent="1" vertex="1">
          <mxGeometry x="565" y="870" width="120" height="80" as="geometry" />
        </mxCell>
        <mxCell id="XB3jAJVvI8-QcdFU9VrM-81" value="&lt;font style=&quot;font-size: 24px;&quot;&gt;/dev/nvme0n1&lt;/font&gt;" style="rounded=0;whiteSpace=wrap;html=1;" parent="1" vertex="1">
          <mxGeometry x="535" y="780" width="180" height="60" as="geometry" />
        </mxCell>
        <mxCell id="XB3jAJVvI8-QcdFU9VrM-82" value="" style="endArrow=classic;html=1;rounded=0;strokeWidth=5;strokeColor=#000000;exitX=0.5;exitY=0;exitDx=0;exitDy=0;exitPerimeter=0;entryX=0.5;entryY=1;entryDx=0;entryDy=0;" parent="1" source="XB3jAJVvI8-QcdFU9VrM-80" target="XB3jAJVvI8-QcdFU9VrM-81" edge="1">
          <mxGeometry width="50" height="50" relative="1" as="geometry">
            <mxPoint x="945" y="1190" as="sourcePoint" />
            <mxPoint x="995" y="1140" as="targetPoint" />
          </mxGeometry>
        </mxCell>
        <mxCell id="XB3jAJVvI8-QcdFU9VrM-83" value="" style="endArrow=classic;html=1;rounded=0;strokeWidth=5;strokeColor=#808080;exitX=0.5;exitY=0;exitDx=0;exitDy=0;entryX=0.5;entryY=1;entryDx=0;entryDy=0;" parent="1" source="XB3jAJVvI8-QcdFU9VrM-81" target="XB3jAJVvI8-QcdFU9VrM-84" edge="1">
          <mxGeometry width="50" height="50" relative="1" as="geometry">
            <mxPoint x="1325" y="790" as="sourcePoint" />
            <mxPoint x="1325" y="700" as="targetPoint" />
          </mxGeometry>
        </mxCell>
        <mxCell id="XB3jAJVvI8-QcdFU9VrM-84" value="&lt;font style=&quot;font-size: 24px;&quot;&gt;Logical Disk&lt;/font&gt;" style="rounded=1;whiteSpace=wrap;html=1;verticalAlign=bottom;container=0;" parent="1" vertex="1">
          <mxGeometry x="560" y="690" width="120" height="60" as="geometry" />
        </mxCell>
        <mxCell id="XB3jAJVvI8-QcdFU9VrM-85" value="" style="endArrow=none;dashed=1;html=1;dashPattern=1 4;strokeWidth=5;rounded=0;exitX=1;exitY=0.5;exitDx=0;exitDy=0;entryX=1;entryY=0.5;entryDx=0;entryDy=0;" parent="1" edge="1">
          <mxGeometry width="50" height="50" relative="1" as="geometry">
            <mxPoint x="655" y="720" as="sourcePoint" />
            <mxPoint x="655" y="720" as="targetPoint" />
          </mxGeometry>
        </mxCell>
        <mxCell id="XB3jAJVvI8-QcdFU9VrM-86" value="" style="endArrow=classic;html=1;rounded=0;strokeWidth=5;strokeColor=#0000f0;exitX=0.5;exitY=0;exitDx=0;exitDy=0;entryX=0.5;entryY=1;entryDx=0;entryDy=0;" parent="1" source="XB3jAJVvI8-QcdFU9VrM-77" target="XB3jAJVvI8-QcdFU9VrM-71" edge="1">
          <mxGeometry width="50" height="50" relative="1" as="geometry">
            <mxPoint x="1770" y="560" as="sourcePoint" />
            <mxPoint x="1650" y="300" as="targetPoint" />
          </mxGeometry>
        </mxCell>
        <mxCell id="XB3jAJVvI8-QcdFU9VrM-87" value="" style="endArrow=classic;html=1;rounded=0;strokeWidth=5;strokeColor=#0000f0;exitX=0.5;exitY=0;exitDx=0;exitDy=0;entryX=0.5;entryY=1;entryDx=0;entryDy=0;" parent="1" source="XB3jAJVvI8-QcdFU9VrM-84" target="XB3jAJVvI8-QcdFU9VrM-71" edge="1">
          <mxGeometry width="50" height="50" relative="1" as="geometry">
            <mxPoint x="1580" y="800" as="sourcePoint" />
            <mxPoint x="1700" y="540" as="targetPoint" />
          </mxGeometry>
        </mxCell>
        <mxCell id="XB3jAJVvI8-QcdFU9VrM-88" value="&lt;span style=&quot;font-size: 24px;&quot;&gt;nvmeof&lt;br&gt;target&lt;br&gt;&lt;/span&gt;" style="rounded=0;whiteSpace=wrap;html=1;verticalAlign=middle;" parent="1" vertex="1">
          <mxGeometry x="-1195" y="120" width="120" height="60" as="geometry" />
        </mxCell>
        <mxCell id="XB3jAJVvI8-QcdFU9VrM-90" value="&lt;span style=&quot;font-size: 48px;&quot;&gt;Dispatcher Node&lt;/span&gt;" style="rounded=1;whiteSpace=wrap;html=1;verticalAlign=top;" parent="1" vertex="1">
          <mxGeometry x="-805" y="60" width="420" height="240" as="geometry" />
        </mxCell>
        <mxCell id="XB3jAJVvI8-QcdFU9VrM-91" value="&lt;span style=&quot;font-size: 24px;&quot;&gt;raid0&lt;/span&gt;" style="rounded=0;whiteSpace=wrap;html=1;verticalAlign=middle;" parent="1" vertex="1">
          <mxGeometry x="-655" y="210" width="120" height="60" as="geometry" />
        </mxCell>
        <mxCell id="XB3jAJVvI8-QcdFU9VrM-92" value="&lt;span style=&quot;font-size: 24px;&quot;&gt;nvmeof&lt;br&gt;target&lt;br&gt;&lt;/span&gt;" style="rounded=0;whiteSpace=wrap;html=1;verticalAlign=middle;" parent="1" vertex="1">
          <mxGeometry x="-655" y="120" width="120" height="60" as="geometry" />
        </mxCell>
        <mxCell id="XB3jAJVvI8-QcdFU9VrM-93" value="&lt;span style=&quot;font-size: 48px;&quot;&gt;Dispatcher Node&lt;/span&gt;" style="rounded=1;whiteSpace=wrap;html=1;verticalAlign=top;" parent="1" vertex="1">
          <mxGeometry x="-265" y="60" width="420" height="240" as="geometry" />
        </mxCell>
        <mxCell id="XB3jAJVvI8-QcdFU9VrM-94" value="&lt;span style=&quot;font-size: 24px;&quot;&gt;raid0&lt;/span&gt;" style="rounded=0;whiteSpace=wrap;html=1;verticalAlign=middle;" parent="1" vertex="1">
          <mxGeometry x="-115" y="210" width="120" height="60" as="geometry" />
        </mxCell>
        <mxCell id="XB3jAJVvI8-QcdFU9VrM-95" value="&lt;span style=&quot;font-size: 24px;&quot;&gt;nvmeof&lt;br&gt;target&lt;br&gt;&lt;/span&gt;" style="rounded=0;whiteSpace=wrap;html=1;verticalAlign=middle;" parent="1" vertex="1">
          <mxGeometry x="-115" y="120" width="120" height="60" as="geometry" />
        </mxCell>
        <mxCell id="XB3jAJVvI8-QcdFU9VrM-96" value="&lt;span style=&quot;font-size: 48px;&quot;&gt;Dispatcher Node&lt;/span&gt;" style="rounded=1;whiteSpace=wrap;html=1;verticalAlign=top;" parent="1" vertex="1">
          <mxGeometry x="275" y="60" width="420" height="240" as="geometry" />
        </mxCell>
        <mxCell id="XB3jAJVvI8-QcdFU9VrM-97" value="&lt;span style=&quot;font-size: 24px;&quot;&gt;raid0&lt;/span&gt;" style="rounded=0;whiteSpace=wrap;html=1;verticalAlign=middle;" parent="1" vertex="1">
          <mxGeometry x="425" y="210" width="120" height="60" as="geometry" />
        </mxCell>
        <mxCell id="XB3jAJVvI8-QcdFU9VrM-98" value="&lt;span style=&quot;font-size: 24px;&quot;&gt;nvmeof&lt;br&gt;target&lt;br&gt;&lt;/span&gt;" style="rounded=0;whiteSpace=wrap;html=1;verticalAlign=middle;" parent="1" vertex="1">
          <mxGeometry x="425" y="120" width="120" height="60" as="geometry" />
        </mxCell>
        <mxCell id="XB3jAJVvI8-QcdFU9VrM-99" value="" style="endArrow=classic;html=1;rounded=0;strokeWidth=5;strokeColor=#f000f0;exitX=0.5;exitY=0;exitDx=0;exitDy=0;entryX=0.5;entryY=1;entryDx=0;entryDy=0;" parent="1" source="XB3jAJVvI8-QcdFU9VrM-71" target="XB3jAJVvI8-QcdFU9VrM-97" edge="1">
          <mxGeometry width="50" height="50" relative="1" as="geometry">
            <mxPoint x="-445" y="-80" as="sourcePoint" />
            <mxPoint x="-395" y="-130" as="targetPoint" />
          </mxGeometry>
        </mxCell>
        <mxCell id="XB3jAJVvI8-QcdFU9VrM-100" value="" style="endArrow=classic;html=1;rounded=0;strokeWidth=5;strokeColor=#f000f0;exitX=0.5;exitY=0;exitDx=0;exitDy=0;entryX=0.5;entryY=1;entryDx=0;entryDy=0;" parent="1" source="XB3jAJVvI8-QcdFU9VrM-53" target="XB3jAJVvI8-QcdFU9VrM-97" edge="1">
          <mxGeometry width="50" height="50" relative="1" as="geometry">
            <mxPoint x="-435" y="-70" as="sourcePoint" />
            <mxPoint x="-385" y="-120" as="targetPoint" />
          </mxGeometry>
        </mxCell>
        <mxCell id="XB3jAJVvI8-QcdFU9VrM-101" value="" style="endArrow=classic;html=1;rounded=0;strokeWidth=5;strokeColor=#f000f0;exitX=0.5;exitY=0;exitDx=0;exitDy=0;entryX=0.5;entryY=1;entryDx=0;entryDy=0;" parent="1" source="XB3jAJVvI8-QcdFU9VrM-35" target="XB3jAJVvI8-QcdFU9VrM-97" edge="1">
          <mxGeometry width="50" height="50" relative="1" as="geometry">
            <mxPoint x="-425" y="-60" as="sourcePoint" />
            <mxPoint x="-375" y="-110" as="targetPoint" />
          </mxGeometry>
        </mxCell>
        <mxCell id="XB3jAJVvI8-QcdFU9VrM-102" value="" style="endArrow=classic;html=1;rounded=0;strokeWidth=5;strokeColor=#f000f0;exitX=0.5;exitY=0;exitDx=0;exitDy=0;entryX=0.5;entryY=1;entryDx=0;entryDy=0;" parent="1" source="XB3jAJVvI8-QcdFU9VrM-2" target="XB3jAJVvI8-QcdFU9VrM-97" edge="1">
          <mxGeometry width="50" height="50" relative="1" as="geometry">
            <mxPoint x="-415" y="-50" as="sourcePoint" />
            <mxPoint x="-365" y="-100" as="targetPoint" />
          </mxGeometry>
        </mxCell>
        <mxCell id="XB3jAJVvI8-QcdFU9VrM-103" value="" style="endArrow=classic;html=1;rounded=0;strokeWidth=5;strokeColor=#f000f0;exitX=0.5;exitY=0;exitDx=0;exitDy=0;entryX=0.5;entryY=1;entryDx=0;entryDy=0;" parent="1" source="XB3jAJVvI8-QcdFU9VrM-71" target="XB3jAJVvI8-QcdFU9VrM-94" edge="1">
          <mxGeometry width="50" height="50" relative="1" as="geometry">
            <mxPoint x="-405" y="-40" as="sourcePoint" />
            <mxPoint x="-355" y="-90" as="targetPoint" />
          </mxGeometry>
        </mxCell>
        <mxCell id="XB3jAJVvI8-QcdFU9VrM-104" value="" style="endArrow=classic;html=1;rounded=0;strokeWidth=5;strokeColor=#f000f0;exitX=0.5;exitY=0;exitDx=0;exitDy=0;entryX=0.5;entryY=1;entryDx=0;entryDy=0;" parent="1" source="XB3jAJVvI8-QcdFU9VrM-53" target="XB3jAJVvI8-QcdFU9VrM-94" edge="1">
          <mxGeometry width="50" height="50" relative="1" as="geometry">
            <mxPoint x="-395" y="-30" as="sourcePoint" />
            <mxPoint x="-345" y="-80" as="targetPoint" />
          </mxGeometry>
        </mxCell>
        <mxCell id="XB3jAJVvI8-QcdFU9VrM-105" value="" style="endArrow=classic;html=1;rounded=0;strokeWidth=5;strokeColor=#f000f0;exitX=0.5;exitY=0;exitDx=0;exitDy=0;entryX=0.5;entryY=1;entryDx=0;entryDy=0;" parent="1" source="XB3jAJVvI8-QcdFU9VrM-35" target="XB3jAJVvI8-QcdFU9VrM-94" edge="1">
          <mxGeometry width="50" height="50" relative="1" as="geometry">
            <mxPoint x="-385" y="-20" as="sourcePoint" />
            <mxPoint x="-335" y="-70" as="targetPoint" />
          </mxGeometry>
        </mxCell>
        <mxCell id="XB3jAJVvI8-QcdFU9VrM-106" value="" style="endArrow=classic;html=1;rounded=0;strokeWidth=5;strokeColor=#f000f0;exitX=0.5;exitY=0;exitDx=0;exitDy=0;entryX=0.5;entryY=1;entryDx=0;entryDy=0;" parent="1" source="XB3jAJVvI8-QcdFU9VrM-2" target="XB3jAJVvI8-QcdFU9VrM-94" edge="1">
          <mxGeometry width="50" height="50" relative="1" as="geometry">
            <mxPoint x="-375" y="-10" as="sourcePoint" />
            <mxPoint x="-325" y="-60" as="targetPoint" />
          </mxGeometry>
        </mxCell>
        <mxCell id="XB3jAJVvI8-QcdFU9VrM-107" value="" style="endArrow=classic;html=1;rounded=0;strokeWidth=5;strokeColor=#f000f0;exitX=0.5;exitY=0;exitDx=0;exitDy=0;entryX=0.5;entryY=1;entryDx=0;entryDy=0;" parent="1" source="XB3jAJVvI8-QcdFU9VrM-71" target="XB3jAJVvI8-QcdFU9VrM-91" edge="1">
          <mxGeometry width="50" height="50" relative="1" as="geometry">
            <mxPoint x="-365" as="sourcePoint" />
            <mxPoint x="-315" y="-50" as="targetPoint" />
          </mxGeometry>
        </mxCell>
        <mxCell id="XB3jAJVvI8-QcdFU9VrM-108" value="" style="endArrow=classic;html=1;rounded=0;strokeWidth=5;strokeColor=#f000f0;exitX=0.5;exitY=0;exitDx=0;exitDy=0;entryX=0.5;entryY=1;entryDx=0;entryDy=0;" parent="1" source="XB3jAJVvI8-QcdFU9VrM-53" target="XB3jAJVvI8-QcdFU9VrM-91" edge="1">
          <mxGeometry width="50" height="50" relative="1" as="geometry">
            <mxPoint x="-355" y="10" as="sourcePoint" />
            <mxPoint x="-305" y="-40" as="targetPoint" />
          </mxGeometry>
        </mxCell>
        <mxCell id="XB3jAJVvI8-QcdFU9VrM-109" value="" style="endArrow=classic;html=1;rounded=0;strokeWidth=5;strokeColor=#f000f0;exitX=0.5;exitY=0;exitDx=0;exitDy=0;entryX=0.5;entryY=1;entryDx=0;entryDy=0;" parent="1" source="XB3jAJVvI8-QcdFU9VrM-35" target="XB3jAJVvI8-QcdFU9VrM-91" edge="1">
          <mxGeometry width="50" height="50" relative="1" as="geometry">
            <mxPoint x="-345" y="20" as="sourcePoint" />
            <mxPoint x="-295" y="-30" as="targetPoint" />
          </mxGeometry>
        </mxCell>
        <mxCell id="XB3jAJVvI8-QcdFU9VrM-110" value="" style="endArrow=classic;html=1;rounded=0;strokeWidth=5;strokeColor=#f000f0;exitX=0.5;exitY=0;exitDx=0;exitDy=0;entryX=0.5;entryY=1;entryDx=0;entryDy=0;" parent="1" source="XB3jAJVvI8-QcdFU9VrM-2" target="XB3jAJVvI8-QcdFU9VrM-91" edge="1">
          <mxGeometry width="50" height="50" relative="1" as="geometry">
            <mxPoint x="-335" y="30" as="sourcePoint" />
            <mxPoint x="-285" y="-20" as="targetPoint" />
          </mxGeometry>
        </mxCell>
        <mxCell id="XB3jAJVvI8-QcdFU9VrM-111" value="" style="endArrow=classic;html=1;rounded=0;strokeWidth=5;strokeColor=#f000f0;exitX=0.5;exitY=0;exitDx=0;exitDy=0;entryX=0.5;entryY=1;entryDx=0;entryDy=0;" parent="1" source="XB3jAJVvI8-QcdFU9VrM-71" target="XB3jAJVvI8-QcdFU9VrM-33" edge="1">
          <mxGeometry width="50" height="50" relative="1" as="geometry">
            <mxPoint x="-325" y="40" as="sourcePoint" />
            <mxPoint x="-275" y="-10" as="targetPoint" />
          </mxGeometry>
        </mxCell>
        <mxCell id="XB3jAJVvI8-QcdFU9VrM-112" value="" style="endArrow=classic;html=1;rounded=0;strokeWidth=5;strokeColor=#f000f0;exitX=0.5;exitY=0;exitDx=0;exitDy=0;entryX=0.5;entryY=1;entryDx=0;entryDy=0;" parent="1" source="XB3jAJVvI8-QcdFU9VrM-53" target="XB3jAJVvI8-QcdFU9VrM-33" edge="1">
          <mxGeometry width="50" height="50" relative="1" as="geometry">
            <mxPoint x="-315" y="50" as="sourcePoint" />
            <mxPoint x="-265" as="targetPoint" />
          </mxGeometry>
        </mxCell>
        <mxCell id="XB3jAJVvI8-QcdFU9VrM-113" value="" style="endArrow=classic;html=1;rounded=0;strokeWidth=5;strokeColor=#f000f0;exitX=0.5;exitY=0;exitDx=0;exitDy=0;entryX=0.5;entryY=1;entryDx=0;entryDy=0;" parent="1" source="XB3jAJVvI8-QcdFU9VrM-35" target="XB3jAJVvI8-QcdFU9VrM-33" edge="1">
          <mxGeometry width="50" height="50" relative="1" as="geometry">
            <mxPoint x="-305" y="60" as="sourcePoint" />
            <mxPoint x="-255" y="10" as="targetPoint" />
          </mxGeometry>
        </mxCell>
        <mxCell id="XB3jAJVvI8-QcdFU9VrM-114" value="" style="endArrow=classic;html=1;rounded=0;strokeWidth=5;strokeColor=#f000f0;exitX=0.5;exitY=0;exitDx=0;exitDy=0;entryX=0.5;entryY=1;entryDx=0;entryDy=0;" parent="1" source="XB3jAJVvI8-QcdFU9VrM-2" target="XB3jAJVvI8-QcdFU9VrM-33" edge="1">
          <mxGeometry width="50" height="50" relative="1" as="geometry">
            <mxPoint x="-295" y="70" as="sourcePoint" />
            <mxPoint x="-245" y="20" as="targetPoint" />
          </mxGeometry>
        </mxCell>
        <mxCell id="XB3jAJVvI8-QcdFU9VrM-116" value="" style="endArrow=classic;html=1;rounded=0;strokeWidth=5;strokeColor=#00c800;exitX=0.5;exitY=0;exitDx=0;exitDy=0;entryX=0.5;entryY=1;entryDx=0;entryDy=0;" parent="1" source="XB3jAJVvI8-QcdFU9VrM-88" target="XB3jAJVvI8-QcdFU9VrM-4" edge="1">
          <mxGeometry width="50" height="50" relative="1" as="geometry">
            <mxPoint x="-705" y="-50" as="sourcePoint" />
            <mxPoint x="-655" y="-100" as="targetPoint" />
          </mxGeometry>
        </mxCell>
        <mxCell id="XB3jAJVvI8-QcdFU9VrM-117" value="" style="endArrow=classic;html=1;rounded=0;strokeWidth=5;strokeColor=#00c800;exitX=0.5;exitY=0;exitDx=0;exitDy=0;entryX=0.5;entryY=1;entryDx=0;entryDy=0;" parent="1" source="XB3jAJVvI8-QcdFU9VrM-98" target="XB3jAJVvI8-QcdFU9VrM-4" edge="1">
          <mxGeometry width="50" height="50" relative="1" as="geometry">
            <mxPoint x="-1125" y="130" as="sourcePoint" />
            <mxPoint x="-315" y="-20" as="targetPoint" />
          </mxGeometry>
        </mxCell>
        <mxCell id="XB3jAJVvI8-QcdFU9VrM-118" value="" style="endArrow=classic;html=1;rounded=0;strokeWidth=5;strokeColor=#00c800;exitX=0.5;exitY=0;exitDx=0;exitDy=0;entryX=0.5;entryY=1;entryDx=0;entryDy=0;" parent="1" source="XB3jAJVvI8-QcdFU9VrM-95" target="XB3jAJVvI8-QcdFU9VrM-4" edge="1">
          <mxGeometry width="50" height="50" relative="1" as="geometry">
            <mxPoint x="-1115" y="140" as="sourcePoint" />
            <mxPoint x="-305" y="-10" as="targetPoint" />
          </mxGeometry>
        </mxCell>
        <mxCell id="XB3jAJVvI8-QcdFU9VrM-119" value="" style="endArrow=classic;html=1;rounded=0;strokeWidth=5;strokeColor=#00c800;exitX=0.5;exitY=0;exitDx=0;exitDy=0;entryX=0.5;entryY=1;entryDx=0;entryDy=0;" parent="1" source="XB3jAJVvI8-QcdFU9VrM-92" target="XB3jAJVvI8-QcdFU9VrM-4" edge="1">
          <mxGeometry width="50" height="50" relative="1" as="geometry">
            <mxPoint x="-1105" y="150" as="sourcePoint" />
            <mxPoint x="-295" as="targetPoint" />
          </mxGeometry>
        </mxCell>
        <mxCell id="XB3jAJVvI8-QcdFU9VrM-121" value="" style="endArrow=classic;html=1;rounded=0;strokeWidth=5;strokeColor=#808080;entryX=0.5;entryY=1;entryDx=0;entryDy=0;exitX=0.5;exitY=0;exitDx=0;exitDy=0;" parent="1" source="XB3jAJVvI8-QcdFU9VrM-97" target="XB3jAJVvI8-QcdFU9VrM-98" edge="1">
          <mxGeometry width="50" height="50" relative="1" as="geometry">
            <mxPoint x="-910" y="20" as="sourcePoint" />
            <mxPoint x="-905" y="-70" as="targetPoint" />
          </mxGeometry>
        </mxCell>
        <mxCell id="XB3jAJVvI8-QcdFU9VrM-122" value="" style="endArrow=classic;html=1;rounded=0;strokeWidth=5;strokeColor=#808080;entryX=0.5;entryY=1;entryDx=0;entryDy=0;exitX=0.5;exitY=0;exitDx=0;exitDy=0;" parent="1" source="XB3jAJVvI8-QcdFU9VrM-94" target="XB3jAJVvI8-QcdFU9VrM-95" edge="1">
          <mxGeometry width="50" height="50" relative="1" as="geometry">
            <mxPoint x="-900" y="30" as="sourcePoint" />
            <mxPoint x="-895" y="-60" as="targetPoint" />
          </mxGeometry>
        </mxCell>
        <mxCell id="XB3jAJVvI8-QcdFU9VrM-123" value="" style="endArrow=classic;html=1;rounded=0;strokeWidth=5;strokeColor=#808080;entryX=0.5;entryY=1;entryDx=0;entryDy=0;exitX=0.5;exitY=0;exitDx=0;exitDy=0;" parent="1" source="XB3jAJVvI8-QcdFU9VrM-91" target="XB3jAJVvI8-QcdFU9VrM-92" edge="1">
          <mxGeometry width="50" height="50" relative="1" as="geometry">
            <mxPoint x="-890" y="40" as="sourcePoint" />
            <mxPoint x="-885" y="-50" as="targetPoint" />
          </mxGeometry>
        </mxCell>
        <mxCell id="XB3jAJVvI8-QcdFU9VrM-124" value="" style="endArrow=classic;html=1;rounded=0;strokeWidth=5;strokeColor=#808080;entryX=0.5;entryY=1;entryDx=0;entryDy=0;exitX=0.5;exitY=0;exitDx=0;exitDy=0;" parent="1" source="XB3jAJVvI8-QcdFU9VrM-33" target="XB3jAJVvI8-QcdFU9VrM-88" edge="1">
          <mxGeometry width="50" height="50" relative="1" as="geometry">
            <mxPoint x="-880" y="50" as="sourcePoint" />
            <mxPoint x="-875" y="-40" as="targetPoint" />
          </mxGeometry>
        </mxCell>
      </root>
    </mxGraphModel>
  </diagram>
</mxfile>
